<svg width="20" height="20" viewBox="0 0 20 20" fill="none" xmlns="http://www.w3.org/2000/svg">
<path d="M19.9935 10.0034C19.9957 8.71579 19.7463 7.4401 19.2594 6.24808C19.2559 6.24098 19.2559 6.23389 19.2523 6.2268C19.249 6.21669 19.2442 6.20712 19.2381 6.19843C18.6576 4.78432 17.7605 3.52223 16.6157 2.50926C15.4709 1.49628 14.109 0.759433 12.6347 0.355399C11.1605 -0.048636 9.61321 -0.109084 8.11193 0.178704C6.61065 0.466493 5.1954 1.09485 3.97508 2.01542C2.75475 2.936 1.76187 4.12425 1.07283 5.48876C0.383795 6.85327 0.0169682 8.35766 0.000574781 9.88619C-0.0158186 11.4147 0.318659 12.9266 0.978271 14.3056C1.63788 15.6846 2.60505 16.8939 3.80535 17.8404C3.80814 17.8467 3.8132 17.8518 3.81954 17.8546C3.82663 17.8581 3.83018 17.8617 3.83727 17.8652C5.59075 19.2515 7.76162 20.0039 9.9969 20C11.8549 19.9982 13.6757 19.4791 15.2553 18.5007C16.8349 17.5224 18.1109 16.1236 18.9403 14.4609C18.9446 14.4569 18.9482 14.4521 18.9509 14.4467L18.9711 14.4067C18.9732 14.4024 18.9768 14.3992 18.9789 14.395C18.981 14.3907 18.9825 14.3836 18.9849 14.3783V14.3758C19.65 13.0143 19.995 11.5187 19.9935 10.0034ZM17.2803 12.9719C17.991 11.2392 18.0565 9.30899 17.4647 7.53213L18.4505 7.13142C19.1554 9.18925 19.0797 11.4343 18.2378 13.44L17.2803 12.9719ZM3.19187 10.0034C3.19187 8.65752 3.59098 7.34184 4.33873 6.22276C5.08647 5.10368 6.14927 4.23146 7.39273 3.7164C8.63619 3.20135 10.0045 3.06658 11.3245 3.32916C12.6445 3.59173 13.8571 4.23985 14.8088 5.19155C15.7605 6.14325 16.4086 7.35579 16.6712 8.67584C16.9338 9.99588 16.799 11.3641 16.2839 12.6076C15.7689 13.8511 14.8967 14.9139 13.7776 15.6616C12.6585 16.4094 11.3428 16.8085 9.9969 16.8085C8.19279 16.8062 6.46321 16.0885 5.18751 14.8128C3.9118 13.5371 3.19412 11.8075 3.19187 10.0034ZM1.06419 10.0034C1.06705 7.72744 1.93762 5.53817 3.49852 3.88173C5.05942 2.2253 7.19317 1.22635 9.46498 1.08845V2.15584C7.92342 2.2589 6.4464 2.81392 5.21844 3.75156C3.99048 4.68919 3.06603 5.96788 2.56058 7.42787C2.05512 8.88785 1.99108 10.4644 2.37644 11.9606C2.76181 13.4568 3.57949 14.8062 4.72735 15.8404L4.07131 16.6737C3.12529 15.8391 2.36784 14.8126 1.84935 13.6624C1.33085 12.5123 1.0632 11.265 1.06419 10.0034ZM9.9969 18.9361C8.17562 18.938 6.39783 18.3797 4.90465 17.3368L5.56424 16.4971C6.86766 17.3954 8.41391 17.8751 9.9969 17.8723C11.3791 17.871 12.7366 17.5059 13.933 16.8137C15.1294 16.1215 16.1225 15.1266 16.8126 13.929L17.7658 14.3953C16.9894 15.7728 15.8609 16.9192 14.4958 17.717C13.1307 18.5149 11.5781 18.9357 9.9969 18.9361ZM7.43908 9.6013V11.4694C7.43908 11.6105 7.38304 11.7458 7.28328 11.8455C7.18353 11.9453 7.04823 12.0013 6.90716 12.0013C6.76608 12.0013 6.63079 11.9453 6.53103 11.8455C6.43128 11.7458 6.37524 11.6105 6.37524 11.4694V9.6013C6.37524 9.46023 6.43128 9.32493 6.53103 9.22518C6.63079 9.12542 6.76608 9.06938 6.90716 9.06938C7.04823 9.06938 7.18353 9.12542 7.28328 9.22518C7.38304 9.32493 7.43908 9.46023 7.43908 9.6013ZM9.49903 7.82823V11.4694C9.49903 11.6105 9.44299 11.7458 9.34323 11.8455C9.24348 11.9453 9.10818 12.0013 8.96711 12.0013C8.82603 12.0013 8.69074 11.9453 8.59098 11.8455C8.49123 11.7458 8.43519 11.6105 8.43519 11.4694V7.82823C8.43519 7.68716 8.49123 7.55186 8.59098 7.45211C8.69074 7.35235 8.82603 7.29631 8.96711 7.29631C9.10818 7.29631 9.24348 7.35235 9.34323 7.45211C9.44299 7.55186 9.49903 7.68716 9.49903 7.82823ZM10.4934 11.4694V8.53746C10.4934 8.39639 10.5494 8.26109 10.6492 8.16134C10.7489 8.06158 10.8842 8.00554 11.0253 8.00554C11.1664 8.00554 11.3017 8.06158 11.4014 8.16134C11.5012 8.26109 11.5572 8.39639 11.5572 8.53746V11.4694C11.5572 11.6105 11.5012 11.7458 11.4014 11.8455C11.3017 11.9453 11.1664 12.0013 11.0253 12.0013C10.8842 12.0013 10.7489 11.9453 10.6492 11.8455C10.5494 11.7458 10.4934 11.6105 10.4934 11.4694ZM12.5533 11.4694V9.6013C12.5533 9.46023 12.6094 9.32493 12.7091 9.22518C12.8089 9.12542 12.9442 9.06938 13.0852 9.06938C13.2263 9.06938 13.3616 9.12542 13.4614 9.22518C13.5611 9.32493 13.6172 9.46023 13.6172 9.6013V11.4694C13.6172 11.6105 13.5611 11.7458 13.4614 11.8455C13.3616 11.9453 13.2263 12.0013 13.0852 12.0013C12.9442 12.0013 12.8089 11.9453 12.7091 11.8455C12.6094 11.7458 12.5533 11.6105 12.5533 11.4694Z" fill="#868D95"/>
</svg>
